<svg width="165" height="111" viewBox="0 0 165 111" fill="none" xmlns="http://www.w3.org/2000/svg">
<path d="M15.5034 31.08C15.5034 26.7887 12.0328 23.31 7.75168 23.31C3.47054 23.31 0 26.7887 0 31.08V55.5C0 59.7913 3.47054 63.27 7.75168 63.27C12.0328 63.27 15.5034 59.7913 15.5034 55.5V31.08Z" fill="#B91F33"/>
<path d="M165 31.08C165 26.7887 161.529 23.31 157.248 23.31C152.967 23.31 149.497 26.7887 149.497 31.08V55.5C149.497 59.7913 152.967 63.27 157.248 63.27C161.529 63.27 165 59.7913 165 55.5V31.08Z" fill="#B91F33"/>
<path d="M89.6979 31.08C89.6979 26.7887 86.2274 23.31 81.9463 23.31C77.6651 23.31 74.1946 26.7887 74.1946 31.08V55.5C74.1946 59.7913 77.6651 63.27 81.9463 63.27C86.2274 63.27 89.6979 59.7913 89.6979 55.5V31.08Z" fill="#B91F33"/>
<path d="M39.8658 21.09C39.8658 16.7988 36.3952 13.32 32.1141 13.32C27.833 13.32 24.3624 16.7988 24.3624 21.09V65.49C24.3624 69.7813 27.833 73.26 32.1141 73.26C36.3952 73.26 39.8658 69.7813 39.8658 65.49V21.09Z" fill="#B91F33"/>
<path d="M139.53 21.09C139.53 16.7988 136.06 13.32 131.779 13.32C127.497 13.32 124.027 16.7988 124.027 21.09V65.49C124.027 69.7813 127.497 73.26 131.779 73.26C136.06 73.26 139.53 69.7813 139.53 65.49V21.09Z" fill="#B91F33"/>
<path d="M65.3356 7.77C65.3356 3.47875 61.8651 0 57.584 0C53.3028 0 49.8323 3.47875 49.8323 7.77V78.81C49.8323 83.1013 53.3028 86.58 57.584 86.58C61.8651 86.58 65.3356 83.1013 65.3356 78.81V7.77Z" fill="#B91F33"/>
<path d="M115.168 7.77C115.168 3.47875 111.697 0 107.416 0C103.135 0 99.6644 3.47875 99.6644 7.77V78.81C99.6644 83.1013 103.135 86.58 107.416 86.58C111.697 86.58 115.168 83.1013 115.168 78.81V7.77Z" fill="#B91F33"/>
<path d="M26.7936 91.02H32.0317V111H26.7936V103.095H22.9563V111H17.7181V91.02H22.9563V99.2049H26.7936V91.02Z" fill="white"/>
<path d="M44.4206 111L43.8115 108.012H39.1216L38.482 111H33.2439L38.2689 91.02H44.7556L49.7806 111H44.4206ZM39.9438 104.153H42.9893L41.497 96.9642L39.9438 104.153Z" fill="white"/>
<path d="M56.3274 103.904V111H50.9978V91.02H60.0428C63.0273 91.02 64.5196 92.3064 64.5196 94.879V100.045C64.5196 102.016 63.6465 103.23 61.9005 103.686L65.4941 111H59.7687L56.6624 103.904H56.3274ZM58.4287 94.9102H56.3274V100.201H58.4287C58.9363 100.201 59.1901 99.9726 59.1901 99.5162V95.5949C59.1901 95.1385 58.9363 94.9102 58.4287 94.9102Z" fill="white"/>
<path d="M66.946 91.02H75.93C78.9146 91.02 80.4068 92.3064 80.4068 94.879V107.141C80.4068 109.714 78.9146 111 75.93 111H66.946V91.02ZM75.0773 106.736V95.2836C75.0773 94.8272 74.8235 94.599 74.316 94.599H72.2755V107.421H74.316C74.8235 107.421 75.0773 107.193 75.0773 106.736Z" fill="white"/>
<path d="M101.953 98.4892H96.6236V95.2836C96.6236 94.8272 96.3697 94.599 95.8622 94.599H94.7963C94.2888 94.599 94.0349 94.8272 94.0349 95.2836V106.736C94.0349 107.193 94.2888 107.421 94.7963 107.421H95.8622C96.3697 107.421 96.6236 107.193 96.6236 106.736V103.655H101.953V107.141C101.953 109.714 100.461 111 97.4764 111H93.1823C90.1978 111 88.7054 109.714 88.7054 107.141V94.879C88.7054 92.3064 90.1978 91.02 93.1823 91.02H97.4764C100.461 91.02 101.953 92.3064 101.953 94.879V98.4892Z" fill="white"/>
<path d="M108.322 91.02H112.829C115.813 91.02 117.306 92.3064 117.306 94.879V107.141C117.306 109.714 115.813 111 112.829 111H108.322C105.337 111 103.845 109.714 103.845 107.141V94.879C103.845 92.3064 105.337 91.02 108.322 91.02ZM111.976 106.425V95.5949C111.976 95.1385 111.723 94.9102 111.214 94.9102H109.936C109.428 94.9102 109.174 95.1385 109.174 95.5949V106.425C109.174 106.882 109.428 107.11 109.936 107.11H111.214C111.723 107.11 111.976 106.882 111.976 106.425Z" fill="white"/>
<path d="M124.969 103.904V111H119.639V91.02H128.685C131.669 91.02 133.161 92.3064 133.161 94.879V100.045C133.161 102.016 132.288 103.23 130.542 103.686L134.135 111H128.41L125.304 103.904H124.969ZM127.07 94.9102H124.969V100.201H127.07C127.578 100.201 127.832 99.9726 127.832 99.5162V95.5949C127.832 95.1385 127.578 94.9102 127.07 94.9102Z" fill="white"/>
<path d="M140.612 107.11H147.282V111H135.282V91.02H147.007V94.9102H140.612V98.9872H146.125V102.877H140.612V107.11Z" fill="white"/>
</svg>
